%TF.GenerationSoftware,KiCad,Pcbnew,8.0.2*%
%TF.CreationDate,2024-06-07T00:11:44+02:00*%
%TF.ProjectId,BBC,4242432e-6b69-4636-9164-5f7063625858,rev?*%
%TF.SameCoordinates,Original*%
%TF.FileFunction,Legend,Top*%
%TF.FilePolarity,Positive*%
%FSLAX46Y46*%
G04 Gerber Fmt 4.6, Leading zero omitted, Abs format (unit mm)*
G04 Created by KiCad (PCBNEW 8.0.2) date 2024-06-07 00:11:44*
%MOMM*%
%LPD*%
G01*
G04 APERTURE LIST*
%ADD10C,0.250000*%
%ADD11C,0.300000*%
%ADD12C,0.150000*%
%ADD13C,0.120000*%
G04 APERTURE END LIST*
D10*
X39854949Y-45959857D02*
X39902568Y-45912238D01*
X39902568Y-45912238D02*
X39997806Y-45864619D01*
X39997806Y-45864619D02*
X40235901Y-45864619D01*
X40235901Y-45864619D02*
X40331139Y-45912238D01*
X40331139Y-45912238D02*
X40378758Y-45959857D01*
X40378758Y-45959857D02*
X40426377Y-46055095D01*
X40426377Y-46055095D02*
X40426377Y-46150333D01*
X40426377Y-46150333D02*
X40378758Y-46293190D01*
X40378758Y-46293190D02*
X39807330Y-46864619D01*
X39807330Y-46864619D02*
X40426377Y-46864619D01*
X41045425Y-45864619D02*
X41140663Y-45864619D01*
X41140663Y-45864619D02*
X41235901Y-45912238D01*
X41235901Y-45912238D02*
X41283520Y-45959857D01*
X41283520Y-45959857D02*
X41331139Y-46055095D01*
X41331139Y-46055095D02*
X41378758Y-46245571D01*
X41378758Y-46245571D02*
X41378758Y-46483666D01*
X41378758Y-46483666D02*
X41331139Y-46674142D01*
X41331139Y-46674142D02*
X41283520Y-46769380D01*
X41283520Y-46769380D02*
X41235901Y-46817000D01*
X41235901Y-46817000D02*
X41140663Y-46864619D01*
X41140663Y-46864619D02*
X41045425Y-46864619D01*
X41045425Y-46864619D02*
X40950187Y-46817000D01*
X40950187Y-46817000D02*
X40902568Y-46769380D01*
X40902568Y-46769380D02*
X40854949Y-46674142D01*
X40854949Y-46674142D02*
X40807330Y-46483666D01*
X40807330Y-46483666D02*
X40807330Y-46245571D01*
X40807330Y-46245571D02*
X40854949Y-46055095D01*
X40854949Y-46055095D02*
X40902568Y-45959857D01*
X40902568Y-45959857D02*
X40950187Y-45912238D01*
X40950187Y-45912238D02*
X41045425Y-45864619D01*
X41759711Y-45959857D02*
X41807330Y-45912238D01*
X41807330Y-45912238D02*
X41902568Y-45864619D01*
X41902568Y-45864619D02*
X42140663Y-45864619D01*
X42140663Y-45864619D02*
X42235901Y-45912238D01*
X42235901Y-45912238D02*
X42283520Y-45959857D01*
X42283520Y-45959857D02*
X42331139Y-46055095D01*
X42331139Y-46055095D02*
X42331139Y-46150333D01*
X42331139Y-46150333D02*
X42283520Y-46293190D01*
X42283520Y-46293190D02*
X41712092Y-46864619D01*
X41712092Y-46864619D02*
X42331139Y-46864619D01*
X43188282Y-46197952D02*
X43188282Y-46864619D01*
X42950187Y-45817000D02*
X42712092Y-46531285D01*
X42712092Y-46531285D02*
X43331139Y-46531285D01*
X43712092Y-46483666D02*
X44473997Y-46483666D01*
X45140663Y-45864619D02*
X45235901Y-45864619D01*
X45235901Y-45864619D02*
X45331139Y-45912238D01*
X45331139Y-45912238D02*
X45378758Y-45959857D01*
X45378758Y-45959857D02*
X45426377Y-46055095D01*
X45426377Y-46055095D02*
X45473996Y-46245571D01*
X45473996Y-46245571D02*
X45473996Y-46483666D01*
X45473996Y-46483666D02*
X45426377Y-46674142D01*
X45426377Y-46674142D02*
X45378758Y-46769380D01*
X45378758Y-46769380D02*
X45331139Y-46817000D01*
X45331139Y-46817000D02*
X45235901Y-46864619D01*
X45235901Y-46864619D02*
X45140663Y-46864619D01*
X45140663Y-46864619D02*
X45045425Y-46817000D01*
X45045425Y-46817000D02*
X44997806Y-46769380D01*
X44997806Y-46769380D02*
X44950187Y-46674142D01*
X44950187Y-46674142D02*
X44902568Y-46483666D01*
X44902568Y-46483666D02*
X44902568Y-46245571D01*
X44902568Y-46245571D02*
X44950187Y-46055095D01*
X44950187Y-46055095D02*
X44997806Y-45959857D01*
X44997806Y-45959857D02*
X45045425Y-45912238D01*
X45045425Y-45912238D02*
X45140663Y-45864619D01*
X46331139Y-45864619D02*
X46140663Y-45864619D01*
X46140663Y-45864619D02*
X46045425Y-45912238D01*
X46045425Y-45912238D02*
X45997806Y-45959857D01*
X45997806Y-45959857D02*
X45902568Y-46102714D01*
X45902568Y-46102714D02*
X45854949Y-46293190D01*
X45854949Y-46293190D02*
X45854949Y-46674142D01*
X45854949Y-46674142D02*
X45902568Y-46769380D01*
X45902568Y-46769380D02*
X45950187Y-46817000D01*
X45950187Y-46817000D02*
X46045425Y-46864619D01*
X46045425Y-46864619D02*
X46235901Y-46864619D01*
X46235901Y-46864619D02*
X46331139Y-46817000D01*
X46331139Y-46817000D02*
X46378758Y-46769380D01*
X46378758Y-46769380D02*
X46426377Y-46674142D01*
X46426377Y-46674142D02*
X46426377Y-46436047D01*
X46426377Y-46436047D02*
X46378758Y-46340809D01*
X46378758Y-46340809D02*
X46331139Y-46293190D01*
X46331139Y-46293190D02*
X46235901Y-46245571D01*
X46235901Y-46245571D02*
X46045425Y-46245571D01*
X46045425Y-46245571D02*
X45950187Y-46293190D01*
X45950187Y-46293190D02*
X45902568Y-46340809D01*
X45902568Y-46340809D02*
X45854949Y-46436047D01*
X46854949Y-46483666D02*
X47616854Y-46483666D01*
X48283520Y-45864619D02*
X48378758Y-45864619D01*
X48378758Y-45864619D02*
X48473996Y-45912238D01*
X48473996Y-45912238D02*
X48521615Y-45959857D01*
X48521615Y-45959857D02*
X48569234Y-46055095D01*
X48569234Y-46055095D02*
X48616853Y-46245571D01*
X48616853Y-46245571D02*
X48616853Y-46483666D01*
X48616853Y-46483666D02*
X48569234Y-46674142D01*
X48569234Y-46674142D02*
X48521615Y-46769380D01*
X48521615Y-46769380D02*
X48473996Y-46817000D01*
X48473996Y-46817000D02*
X48378758Y-46864619D01*
X48378758Y-46864619D02*
X48283520Y-46864619D01*
X48283520Y-46864619D02*
X48188282Y-46817000D01*
X48188282Y-46817000D02*
X48140663Y-46769380D01*
X48140663Y-46769380D02*
X48093044Y-46674142D01*
X48093044Y-46674142D02*
X48045425Y-46483666D01*
X48045425Y-46483666D02*
X48045425Y-46245571D01*
X48045425Y-46245571D02*
X48093044Y-46055095D01*
X48093044Y-46055095D02*
X48140663Y-45959857D01*
X48140663Y-45959857D02*
X48188282Y-45912238D01*
X48188282Y-45912238D02*
X48283520Y-45864619D01*
X49473996Y-45864619D02*
X49283520Y-45864619D01*
X49283520Y-45864619D02*
X49188282Y-45912238D01*
X49188282Y-45912238D02*
X49140663Y-45959857D01*
X49140663Y-45959857D02*
X49045425Y-46102714D01*
X49045425Y-46102714D02*
X48997806Y-46293190D01*
X48997806Y-46293190D02*
X48997806Y-46674142D01*
X48997806Y-46674142D02*
X49045425Y-46769380D01*
X49045425Y-46769380D02*
X49093044Y-46817000D01*
X49093044Y-46817000D02*
X49188282Y-46864619D01*
X49188282Y-46864619D02*
X49378758Y-46864619D01*
X49378758Y-46864619D02*
X49473996Y-46817000D01*
X49473996Y-46817000D02*
X49521615Y-46769380D01*
X49521615Y-46769380D02*
X49569234Y-46674142D01*
X49569234Y-46674142D02*
X49569234Y-46436047D01*
X49569234Y-46436047D02*
X49521615Y-46340809D01*
X49521615Y-46340809D02*
X49473996Y-46293190D01*
X49473996Y-46293190D02*
X49378758Y-46245571D01*
X49378758Y-46245571D02*
X49188282Y-46245571D01*
X49188282Y-46245571D02*
X49093044Y-46293190D01*
X49093044Y-46293190D02*
X49045425Y-46340809D01*
X49045425Y-46340809D02*
X48997806Y-46436047D01*
D11*
X39840225Y-43372257D02*
X39697368Y-43300828D01*
X39697368Y-43300828D02*
X39483082Y-43300828D01*
X39483082Y-43300828D02*
X39268796Y-43372257D01*
X39268796Y-43372257D02*
X39125939Y-43515114D01*
X39125939Y-43515114D02*
X39054510Y-43657971D01*
X39054510Y-43657971D02*
X38983082Y-43943685D01*
X38983082Y-43943685D02*
X38983082Y-44157971D01*
X38983082Y-44157971D02*
X39054510Y-44443685D01*
X39054510Y-44443685D02*
X39125939Y-44586542D01*
X39125939Y-44586542D02*
X39268796Y-44729400D01*
X39268796Y-44729400D02*
X39483082Y-44800828D01*
X39483082Y-44800828D02*
X39625939Y-44800828D01*
X39625939Y-44800828D02*
X39840225Y-44729400D01*
X39840225Y-44729400D02*
X39911653Y-44657971D01*
X39911653Y-44657971D02*
X39911653Y-44157971D01*
X39911653Y-44157971D02*
X39625939Y-44157971D01*
X41197368Y-44800828D02*
X41197368Y-44015114D01*
X41197368Y-44015114D02*
X41125939Y-43872257D01*
X41125939Y-43872257D02*
X40983082Y-43800828D01*
X40983082Y-43800828D02*
X40697368Y-43800828D01*
X40697368Y-43800828D02*
X40554510Y-43872257D01*
X41197368Y-44729400D02*
X41054510Y-44800828D01*
X41054510Y-44800828D02*
X40697368Y-44800828D01*
X40697368Y-44800828D02*
X40554510Y-44729400D01*
X40554510Y-44729400D02*
X40483082Y-44586542D01*
X40483082Y-44586542D02*
X40483082Y-44443685D01*
X40483082Y-44443685D02*
X40554510Y-44300828D01*
X40554510Y-44300828D02*
X40697368Y-44229400D01*
X40697368Y-44229400D02*
X41054510Y-44229400D01*
X41054510Y-44229400D02*
X41197368Y-44157971D01*
X41911653Y-44800828D02*
X41911653Y-43800828D01*
X41911653Y-43943685D02*
X41983082Y-43872257D01*
X41983082Y-43872257D02*
X42125939Y-43800828D01*
X42125939Y-43800828D02*
X42340225Y-43800828D01*
X42340225Y-43800828D02*
X42483082Y-43872257D01*
X42483082Y-43872257D02*
X42554511Y-44015114D01*
X42554511Y-44015114D02*
X42554511Y-44800828D01*
X42554511Y-44015114D02*
X42625939Y-43872257D01*
X42625939Y-43872257D02*
X42768796Y-43800828D01*
X42768796Y-43800828D02*
X42983082Y-43800828D01*
X42983082Y-43800828D02*
X43125939Y-43872257D01*
X43125939Y-43872257D02*
X43197368Y-44015114D01*
X43197368Y-44015114D02*
X43197368Y-44800828D01*
X44483082Y-44729400D02*
X44340225Y-44800828D01*
X44340225Y-44800828D02*
X44054511Y-44800828D01*
X44054511Y-44800828D02*
X43911653Y-44729400D01*
X43911653Y-44729400D02*
X43840225Y-44586542D01*
X43840225Y-44586542D02*
X43840225Y-44015114D01*
X43840225Y-44015114D02*
X43911653Y-43872257D01*
X43911653Y-43872257D02*
X44054511Y-43800828D01*
X44054511Y-43800828D02*
X44340225Y-43800828D01*
X44340225Y-43800828D02*
X44483082Y-43872257D01*
X44483082Y-43872257D02*
X44554511Y-44015114D01*
X44554511Y-44015114D02*
X44554511Y-44157971D01*
X44554511Y-44157971D02*
X43840225Y-44300828D01*
X46125939Y-43300828D02*
X46625939Y-44800828D01*
X46625939Y-44800828D02*
X47125939Y-43300828D01*
X48411653Y-44800828D02*
X47554510Y-44800828D01*
X47983081Y-44800828D02*
X47983081Y-43300828D01*
X47983081Y-43300828D02*
X47840224Y-43515114D01*
X47840224Y-43515114D02*
X47697367Y-43657971D01*
X47697367Y-43657971D02*
X47554510Y-43729400D01*
X49054509Y-44657971D02*
X49125938Y-44729400D01*
X49125938Y-44729400D02*
X49054509Y-44800828D01*
X49054509Y-44800828D02*
X48983081Y-44729400D01*
X48983081Y-44729400D02*
X49054509Y-44657971D01*
X49054509Y-44657971D02*
X49054509Y-44800828D01*
X50054510Y-43300828D02*
X50197367Y-43300828D01*
X50197367Y-43300828D02*
X50340224Y-43372257D01*
X50340224Y-43372257D02*
X50411653Y-43443685D01*
X50411653Y-43443685D02*
X50483081Y-43586542D01*
X50483081Y-43586542D02*
X50554510Y-43872257D01*
X50554510Y-43872257D02*
X50554510Y-44229400D01*
X50554510Y-44229400D02*
X50483081Y-44515114D01*
X50483081Y-44515114D02*
X50411653Y-44657971D01*
X50411653Y-44657971D02*
X50340224Y-44729400D01*
X50340224Y-44729400D02*
X50197367Y-44800828D01*
X50197367Y-44800828D02*
X50054510Y-44800828D01*
X50054510Y-44800828D02*
X49911653Y-44729400D01*
X49911653Y-44729400D02*
X49840224Y-44657971D01*
X49840224Y-44657971D02*
X49768795Y-44515114D01*
X49768795Y-44515114D02*
X49697367Y-44229400D01*
X49697367Y-44229400D02*
X49697367Y-43872257D01*
X49697367Y-43872257D02*
X49768795Y-43586542D01*
X49768795Y-43586542D02*
X49840224Y-43443685D01*
X49840224Y-43443685D02*
X49911653Y-43372257D01*
X49911653Y-43372257D02*
X50054510Y-43300828D01*
D10*
X47047619Y-37254675D02*
X47047619Y-36254675D01*
X47047619Y-36254675D02*
X47285714Y-36254675D01*
X47285714Y-36254675D02*
X47428571Y-36302294D01*
X47428571Y-36302294D02*
X47523809Y-36397532D01*
X47523809Y-36397532D02*
X47571428Y-36492770D01*
X47571428Y-36492770D02*
X47619047Y-36683246D01*
X47619047Y-36683246D02*
X47619047Y-36826103D01*
X47619047Y-36826103D02*
X47571428Y-37016579D01*
X47571428Y-37016579D02*
X47523809Y-37111817D01*
X47523809Y-37111817D02*
X47428571Y-37207056D01*
X47428571Y-37207056D02*
X47285714Y-37254675D01*
X47285714Y-37254675D02*
X47047619Y-37254675D01*
X48428571Y-37207056D02*
X48333333Y-37254675D01*
X48333333Y-37254675D02*
X48142857Y-37254675D01*
X48142857Y-37254675D02*
X48047619Y-37207056D01*
X48047619Y-37207056D02*
X48000000Y-37111817D01*
X48000000Y-37111817D02*
X48000000Y-36730865D01*
X48000000Y-36730865D02*
X48047619Y-36635627D01*
X48047619Y-36635627D02*
X48142857Y-36588008D01*
X48142857Y-36588008D02*
X48333333Y-36588008D01*
X48333333Y-36588008D02*
X48428571Y-36635627D01*
X48428571Y-36635627D02*
X48476190Y-36730865D01*
X48476190Y-36730865D02*
X48476190Y-36826103D01*
X48476190Y-36826103D02*
X48000000Y-36921341D01*
X48857143Y-37207056D02*
X48952381Y-37254675D01*
X48952381Y-37254675D02*
X49142857Y-37254675D01*
X49142857Y-37254675D02*
X49238095Y-37207056D01*
X49238095Y-37207056D02*
X49285714Y-37111817D01*
X49285714Y-37111817D02*
X49285714Y-37064198D01*
X49285714Y-37064198D02*
X49238095Y-36968960D01*
X49238095Y-36968960D02*
X49142857Y-36921341D01*
X49142857Y-36921341D02*
X49000000Y-36921341D01*
X49000000Y-36921341D02*
X48904762Y-36873722D01*
X48904762Y-36873722D02*
X48857143Y-36778484D01*
X48857143Y-36778484D02*
X48857143Y-36730865D01*
X48857143Y-36730865D02*
X48904762Y-36635627D01*
X48904762Y-36635627D02*
X49000000Y-36588008D01*
X49000000Y-36588008D02*
X49142857Y-36588008D01*
X49142857Y-36588008D02*
X49238095Y-36635627D01*
X49714286Y-37254675D02*
X49714286Y-36588008D01*
X49714286Y-36254675D02*
X49666667Y-36302294D01*
X49666667Y-36302294D02*
X49714286Y-36349913D01*
X49714286Y-36349913D02*
X49761905Y-36302294D01*
X49761905Y-36302294D02*
X49714286Y-36254675D01*
X49714286Y-36254675D02*
X49714286Y-36349913D01*
X50619047Y-36588008D02*
X50619047Y-37397532D01*
X50619047Y-37397532D02*
X50571428Y-37492770D01*
X50571428Y-37492770D02*
X50523809Y-37540389D01*
X50523809Y-37540389D02*
X50428571Y-37588008D01*
X50428571Y-37588008D02*
X50285714Y-37588008D01*
X50285714Y-37588008D02*
X50190476Y-37540389D01*
X50619047Y-37207056D02*
X50523809Y-37254675D01*
X50523809Y-37254675D02*
X50333333Y-37254675D01*
X50333333Y-37254675D02*
X50238095Y-37207056D01*
X50238095Y-37207056D02*
X50190476Y-37159436D01*
X50190476Y-37159436D02*
X50142857Y-37064198D01*
X50142857Y-37064198D02*
X50142857Y-36778484D01*
X50142857Y-36778484D02*
X50190476Y-36683246D01*
X50190476Y-36683246D02*
X50238095Y-36635627D01*
X50238095Y-36635627D02*
X50333333Y-36588008D01*
X50333333Y-36588008D02*
X50523809Y-36588008D01*
X50523809Y-36588008D02*
X50619047Y-36635627D01*
X51095238Y-36588008D02*
X51095238Y-37254675D01*
X51095238Y-36683246D02*
X51142857Y-36635627D01*
X51142857Y-36635627D02*
X51238095Y-36588008D01*
X51238095Y-36588008D02*
X51380952Y-36588008D01*
X51380952Y-36588008D02*
X51476190Y-36635627D01*
X51476190Y-36635627D02*
X51523809Y-36730865D01*
X51523809Y-36730865D02*
X51523809Y-37254675D01*
X52761905Y-37254675D02*
X52761905Y-36254675D01*
X52761905Y-36635627D02*
X52857143Y-36588008D01*
X52857143Y-36588008D02*
X53047619Y-36588008D01*
X53047619Y-36588008D02*
X53142857Y-36635627D01*
X53142857Y-36635627D02*
X53190476Y-36683246D01*
X53190476Y-36683246D02*
X53238095Y-36778484D01*
X53238095Y-36778484D02*
X53238095Y-37064198D01*
X53238095Y-37064198D02*
X53190476Y-37159436D01*
X53190476Y-37159436D02*
X53142857Y-37207056D01*
X53142857Y-37207056D02*
X53047619Y-37254675D01*
X53047619Y-37254675D02*
X52857143Y-37254675D01*
X52857143Y-37254675D02*
X52761905Y-37207056D01*
X53571429Y-36588008D02*
X53809524Y-37254675D01*
X54047619Y-36588008D02*
X53809524Y-37254675D01*
X53809524Y-37254675D02*
X53714286Y-37492770D01*
X53714286Y-37492770D02*
X53666667Y-37540389D01*
X53666667Y-37540389D02*
X53571429Y-37588008D01*
X48452380Y-37864619D02*
X48452380Y-38578904D01*
X48452380Y-38578904D02*
X48404761Y-38721761D01*
X48404761Y-38721761D02*
X48309523Y-38817000D01*
X48309523Y-38817000D02*
X48166666Y-38864619D01*
X48166666Y-38864619D02*
X48071428Y-38864619D01*
X49309523Y-38817000D02*
X49214285Y-38864619D01*
X49214285Y-38864619D02*
X49023809Y-38864619D01*
X49023809Y-38864619D02*
X48928571Y-38817000D01*
X48928571Y-38817000D02*
X48880952Y-38721761D01*
X48880952Y-38721761D02*
X48880952Y-38340809D01*
X48880952Y-38340809D02*
X48928571Y-38245571D01*
X48928571Y-38245571D02*
X49023809Y-38197952D01*
X49023809Y-38197952D02*
X49214285Y-38197952D01*
X49214285Y-38197952D02*
X49309523Y-38245571D01*
X49309523Y-38245571D02*
X49357142Y-38340809D01*
X49357142Y-38340809D02*
X49357142Y-38436047D01*
X49357142Y-38436047D02*
X48880952Y-38531285D01*
X49785714Y-38197952D02*
X49785714Y-38864619D01*
X49785714Y-38293190D02*
X49833333Y-38245571D01*
X49833333Y-38245571D02*
X49928571Y-38197952D01*
X49928571Y-38197952D02*
X50071428Y-38197952D01*
X50071428Y-38197952D02*
X50166666Y-38245571D01*
X50166666Y-38245571D02*
X50214285Y-38340809D01*
X50214285Y-38340809D02*
X50214285Y-38864619D01*
X50642857Y-38817000D02*
X50738095Y-38864619D01*
X50738095Y-38864619D02*
X50928571Y-38864619D01*
X50928571Y-38864619D02*
X51023809Y-38817000D01*
X51023809Y-38817000D02*
X51071428Y-38721761D01*
X51071428Y-38721761D02*
X51071428Y-38674142D01*
X51071428Y-38674142D02*
X51023809Y-38578904D01*
X51023809Y-38578904D02*
X50928571Y-38531285D01*
X50928571Y-38531285D02*
X50785714Y-38531285D01*
X50785714Y-38531285D02*
X50690476Y-38483666D01*
X50690476Y-38483666D02*
X50642857Y-38388428D01*
X50642857Y-38388428D02*
X50642857Y-38340809D01*
X50642857Y-38340809D02*
X50690476Y-38245571D01*
X50690476Y-38245571D02*
X50785714Y-38197952D01*
X50785714Y-38197952D02*
X50928571Y-38197952D01*
X50928571Y-38197952D02*
X51023809Y-38245571D01*
X51833333Y-38340809D02*
X51500000Y-38340809D01*
X51500000Y-38864619D02*
X51500000Y-37864619D01*
X51500000Y-37864619D02*
X51976190Y-37864619D01*
X52261905Y-37864619D02*
X52928571Y-37864619D01*
X52928571Y-37864619D02*
X52261905Y-38864619D01*
X52261905Y-38864619D02*
X52928571Y-38864619D01*
D12*
X125484819Y-52238094D02*
X124484819Y-52238094D01*
X124484819Y-52238094D02*
X124484819Y-51999999D01*
X124484819Y-51999999D02*
X124532438Y-51857142D01*
X124532438Y-51857142D02*
X124627676Y-51761904D01*
X124627676Y-51761904D02*
X124722914Y-51714285D01*
X124722914Y-51714285D02*
X124913390Y-51666666D01*
X124913390Y-51666666D02*
X125056247Y-51666666D01*
X125056247Y-51666666D02*
X125246723Y-51714285D01*
X125246723Y-51714285D02*
X125341961Y-51761904D01*
X125341961Y-51761904D02*
X125437200Y-51857142D01*
X125437200Y-51857142D02*
X125484819Y-51999999D01*
X125484819Y-51999999D02*
X125484819Y-52238094D01*
X125484819Y-50714285D02*
X125484819Y-51285713D01*
X125484819Y-50999999D02*
X124484819Y-50999999D01*
X124484819Y-50999999D02*
X124627676Y-51095237D01*
X124627676Y-51095237D02*
X124722914Y-51190475D01*
X124722914Y-51190475D02*
X124770533Y-51285713D01*
X126054819Y-56841904D02*
X125054819Y-56841904D01*
X126054819Y-56270476D02*
X125483390Y-56699047D01*
X125054819Y-56270476D02*
X125626247Y-56841904D01*
X124904819Y-40833333D02*
X125619104Y-40833333D01*
X125619104Y-40833333D02*
X125761961Y-40880952D01*
X125761961Y-40880952D02*
X125857200Y-40976190D01*
X125857200Y-40976190D02*
X125904819Y-41119047D01*
X125904819Y-41119047D02*
X125904819Y-41214285D01*
X125238152Y-39928571D02*
X125904819Y-39928571D01*
X124857200Y-40166666D02*
X125571485Y-40404761D01*
X125571485Y-40404761D02*
X125571485Y-39785714D01*
X57666666Y-36044819D02*
X57666666Y-36759104D01*
X57666666Y-36759104D02*
X57619047Y-36901961D01*
X57619047Y-36901961D02*
X57523809Y-36997200D01*
X57523809Y-36997200D02*
X57380952Y-37044819D01*
X57380952Y-37044819D02*
X57285714Y-37044819D01*
X58666666Y-37044819D02*
X58095238Y-37044819D01*
X58380952Y-37044819D02*
X58380952Y-36044819D01*
X58380952Y-36044819D02*
X58285714Y-36187676D01*
X58285714Y-36187676D02*
X58190476Y-36282914D01*
X58190476Y-36282914D02*
X58095238Y-36330533D01*
X118303947Y-87767200D02*
X118446804Y-87814819D01*
X118446804Y-87814819D02*
X118684899Y-87814819D01*
X118684899Y-87814819D02*
X118780137Y-87767200D01*
X118780137Y-87767200D02*
X118827756Y-87719580D01*
X118827756Y-87719580D02*
X118875375Y-87624342D01*
X118875375Y-87624342D02*
X118875375Y-87529104D01*
X118875375Y-87529104D02*
X118827756Y-87433866D01*
X118827756Y-87433866D02*
X118780137Y-87386247D01*
X118780137Y-87386247D02*
X118684899Y-87338628D01*
X118684899Y-87338628D02*
X118494423Y-87291009D01*
X118494423Y-87291009D02*
X118399185Y-87243390D01*
X118399185Y-87243390D02*
X118351566Y-87195771D01*
X118351566Y-87195771D02*
X118303947Y-87100533D01*
X118303947Y-87100533D02*
X118303947Y-87005295D01*
X118303947Y-87005295D02*
X118351566Y-86910057D01*
X118351566Y-86910057D02*
X118399185Y-86862438D01*
X118399185Y-86862438D02*
X118494423Y-86814819D01*
X118494423Y-86814819D02*
X118732518Y-86814819D01*
X118732518Y-86814819D02*
X118875375Y-86862438D01*
X119208709Y-86814819D02*
X119446804Y-87814819D01*
X119446804Y-87814819D02*
X119637280Y-87100533D01*
X119637280Y-87100533D02*
X119827756Y-87814819D01*
X119827756Y-87814819D02*
X120065852Y-86814819D01*
X120589661Y-87243390D02*
X120494423Y-87195771D01*
X120494423Y-87195771D02*
X120446804Y-87148152D01*
X120446804Y-87148152D02*
X120399185Y-87052914D01*
X120399185Y-87052914D02*
X120399185Y-87005295D01*
X120399185Y-87005295D02*
X120446804Y-86910057D01*
X120446804Y-86910057D02*
X120494423Y-86862438D01*
X120494423Y-86862438D02*
X120589661Y-86814819D01*
X120589661Y-86814819D02*
X120780137Y-86814819D01*
X120780137Y-86814819D02*
X120875375Y-86862438D01*
X120875375Y-86862438D02*
X120922994Y-86910057D01*
X120922994Y-86910057D02*
X120970613Y-87005295D01*
X120970613Y-87005295D02*
X120970613Y-87052914D01*
X120970613Y-87052914D02*
X120922994Y-87148152D01*
X120922994Y-87148152D02*
X120875375Y-87195771D01*
X120875375Y-87195771D02*
X120780137Y-87243390D01*
X120780137Y-87243390D02*
X120589661Y-87243390D01*
X120589661Y-87243390D02*
X120494423Y-87291009D01*
X120494423Y-87291009D02*
X120446804Y-87338628D01*
X120446804Y-87338628D02*
X120399185Y-87433866D01*
X120399185Y-87433866D02*
X120399185Y-87624342D01*
X120399185Y-87624342D02*
X120446804Y-87719580D01*
X120446804Y-87719580D02*
X120494423Y-87767200D01*
X120494423Y-87767200D02*
X120589661Y-87814819D01*
X120589661Y-87814819D02*
X120780137Y-87814819D01*
X120780137Y-87814819D02*
X120875375Y-87767200D01*
X120875375Y-87767200D02*
X120922994Y-87719580D01*
X120922994Y-87719580D02*
X120970613Y-87624342D01*
X120970613Y-87624342D02*
X120970613Y-87433866D01*
X120970613Y-87433866D02*
X120922994Y-87338628D01*
X120922994Y-87338628D02*
X120875375Y-87291009D01*
X120875375Y-87291009D02*
X120780137Y-87243390D01*
X128803947Y-77767200D02*
X128946804Y-77814819D01*
X128946804Y-77814819D02*
X129184899Y-77814819D01*
X129184899Y-77814819D02*
X129280137Y-77767200D01*
X129280137Y-77767200D02*
X129327756Y-77719580D01*
X129327756Y-77719580D02*
X129375375Y-77624342D01*
X129375375Y-77624342D02*
X129375375Y-77529104D01*
X129375375Y-77529104D02*
X129327756Y-77433866D01*
X129327756Y-77433866D02*
X129280137Y-77386247D01*
X129280137Y-77386247D02*
X129184899Y-77338628D01*
X129184899Y-77338628D02*
X128994423Y-77291009D01*
X128994423Y-77291009D02*
X128899185Y-77243390D01*
X128899185Y-77243390D02*
X128851566Y-77195771D01*
X128851566Y-77195771D02*
X128803947Y-77100533D01*
X128803947Y-77100533D02*
X128803947Y-77005295D01*
X128803947Y-77005295D02*
X128851566Y-76910057D01*
X128851566Y-76910057D02*
X128899185Y-76862438D01*
X128899185Y-76862438D02*
X128994423Y-76814819D01*
X128994423Y-76814819D02*
X129232518Y-76814819D01*
X129232518Y-76814819D02*
X129375375Y-76862438D01*
X129708709Y-76814819D02*
X129946804Y-77814819D01*
X129946804Y-77814819D02*
X130137280Y-77100533D01*
X130137280Y-77100533D02*
X130327756Y-77814819D01*
X130327756Y-77814819D02*
X130565852Y-76814819D01*
X130851566Y-76814819D02*
X131518232Y-76814819D01*
X131518232Y-76814819D02*
X131089661Y-77814819D01*
X108053947Y-77767200D02*
X108196804Y-77814819D01*
X108196804Y-77814819D02*
X108434899Y-77814819D01*
X108434899Y-77814819D02*
X108530137Y-77767200D01*
X108530137Y-77767200D02*
X108577756Y-77719580D01*
X108577756Y-77719580D02*
X108625375Y-77624342D01*
X108625375Y-77624342D02*
X108625375Y-77529104D01*
X108625375Y-77529104D02*
X108577756Y-77433866D01*
X108577756Y-77433866D02*
X108530137Y-77386247D01*
X108530137Y-77386247D02*
X108434899Y-77338628D01*
X108434899Y-77338628D02*
X108244423Y-77291009D01*
X108244423Y-77291009D02*
X108149185Y-77243390D01*
X108149185Y-77243390D02*
X108101566Y-77195771D01*
X108101566Y-77195771D02*
X108053947Y-77100533D01*
X108053947Y-77100533D02*
X108053947Y-77005295D01*
X108053947Y-77005295D02*
X108101566Y-76910057D01*
X108101566Y-76910057D02*
X108149185Y-76862438D01*
X108149185Y-76862438D02*
X108244423Y-76814819D01*
X108244423Y-76814819D02*
X108482518Y-76814819D01*
X108482518Y-76814819D02*
X108625375Y-76862438D01*
X108958709Y-76814819D02*
X109196804Y-77814819D01*
X109196804Y-77814819D02*
X109387280Y-77100533D01*
X109387280Y-77100533D02*
X109577756Y-77814819D01*
X109577756Y-77814819D02*
X109815852Y-76814819D01*
X110625375Y-76814819D02*
X110434899Y-76814819D01*
X110434899Y-76814819D02*
X110339661Y-76862438D01*
X110339661Y-76862438D02*
X110292042Y-76910057D01*
X110292042Y-76910057D02*
X110196804Y-77052914D01*
X110196804Y-77052914D02*
X110149185Y-77243390D01*
X110149185Y-77243390D02*
X110149185Y-77624342D01*
X110149185Y-77624342D02*
X110196804Y-77719580D01*
X110196804Y-77719580D02*
X110244423Y-77767200D01*
X110244423Y-77767200D02*
X110339661Y-77814819D01*
X110339661Y-77814819D02*
X110530137Y-77814819D01*
X110530137Y-77814819D02*
X110625375Y-77767200D01*
X110625375Y-77767200D02*
X110672994Y-77719580D01*
X110672994Y-77719580D02*
X110720613Y-77624342D01*
X110720613Y-77624342D02*
X110720613Y-77386247D01*
X110720613Y-77386247D02*
X110672994Y-77291009D01*
X110672994Y-77291009D02*
X110625375Y-77243390D01*
X110625375Y-77243390D02*
X110530137Y-77195771D01*
X110530137Y-77195771D02*
X110339661Y-77195771D01*
X110339661Y-77195771D02*
X110244423Y-77243390D01*
X110244423Y-77243390D02*
X110196804Y-77291009D01*
X110196804Y-77291009D02*
X110149185Y-77386247D01*
X118303947Y-67767200D02*
X118446804Y-67814819D01*
X118446804Y-67814819D02*
X118684899Y-67814819D01*
X118684899Y-67814819D02*
X118780137Y-67767200D01*
X118780137Y-67767200D02*
X118827756Y-67719580D01*
X118827756Y-67719580D02*
X118875375Y-67624342D01*
X118875375Y-67624342D02*
X118875375Y-67529104D01*
X118875375Y-67529104D02*
X118827756Y-67433866D01*
X118827756Y-67433866D02*
X118780137Y-67386247D01*
X118780137Y-67386247D02*
X118684899Y-67338628D01*
X118684899Y-67338628D02*
X118494423Y-67291009D01*
X118494423Y-67291009D02*
X118399185Y-67243390D01*
X118399185Y-67243390D02*
X118351566Y-67195771D01*
X118351566Y-67195771D02*
X118303947Y-67100533D01*
X118303947Y-67100533D02*
X118303947Y-67005295D01*
X118303947Y-67005295D02*
X118351566Y-66910057D01*
X118351566Y-66910057D02*
X118399185Y-66862438D01*
X118399185Y-66862438D02*
X118494423Y-66814819D01*
X118494423Y-66814819D02*
X118732518Y-66814819D01*
X118732518Y-66814819D02*
X118875375Y-66862438D01*
X119208709Y-66814819D02*
X119446804Y-67814819D01*
X119446804Y-67814819D02*
X119637280Y-67100533D01*
X119637280Y-67100533D02*
X119827756Y-67814819D01*
X119827756Y-67814819D02*
X120065852Y-66814819D01*
X120922994Y-66814819D02*
X120446804Y-66814819D01*
X120446804Y-66814819D02*
X120399185Y-67291009D01*
X120399185Y-67291009D02*
X120446804Y-67243390D01*
X120446804Y-67243390D02*
X120542042Y-67195771D01*
X120542042Y-67195771D02*
X120780137Y-67195771D01*
X120780137Y-67195771D02*
X120875375Y-67243390D01*
X120875375Y-67243390D02*
X120922994Y-67291009D01*
X120922994Y-67291009D02*
X120970613Y-67386247D01*
X120970613Y-67386247D02*
X120970613Y-67624342D01*
X120970613Y-67624342D02*
X120922994Y-67719580D01*
X120922994Y-67719580D02*
X120875375Y-67767200D01*
X120875375Y-67767200D02*
X120780137Y-67814819D01*
X120780137Y-67814819D02*
X120542042Y-67814819D01*
X120542042Y-67814819D02*
X120446804Y-67767200D01*
X120446804Y-67767200D02*
X120399185Y-67719580D01*
X65303947Y-77517200D02*
X65446804Y-77564819D01*
X65446804Y-77564819D02*
X65684899Y-77564819D01*
X65684899Y-77564819D02*
X65780137Y-77517200D01*
X65780137Y-77517200D02*
X65827756Y-77469580D01*
X65827756Y-77469580D02*
X65875375Y-77374342D01*
X65875375Y-77374342D02*
X65875375Y-77279104D01*
X65875375Y-77279104D02*
X65827756Y-77183866D01*
X65827756Y-77183866D02*
X65780137Y-77136247D01*
X65780137Y-77136247D02*
X65684899Y-77088628D01*
X65684899Y-77088628D02*
X65494423Y-77041009D01*
X65494423Y-77041009D02*
X65399185Y-76993390D01*
X65399185Y-76993390D02*
X65351566Y-76945771D01*
X65351566Y-76945771D02*
X65303947Y-76850533D01*
X65303947Y-76850533D02*
X65303947Y-76755295D01*
X65303947Y-76755295D02*
X65351566Y-76660057D01*
X65351566Y-76660057D02*
X65399185Y-76612438D01*
X65399185Y-76612438D02*
X65494423Y-76564819D01*
X65494423Y-76564819D02*
X65732518Y-76564819D01*
X65732518Y-76564819D02*
X65875375Y-76612438D01*
X66208709Y-76564819D02*
X66446804Y-77564819D01*
X66446804Y-77564819D02*
X66637280Y-76850533D01*
X66637280Y-76850533D02*
X66827756Y-77564819D01*
X66827756Y-77564819D02*
X67065852Y-76564819D01*
X67875375Y-76898152D02*
X67875375Y-77564819D01*
X67637280Y-76517200D02*
X67399185Y-77231485D01*
X67399185Y-77231485D02*
X68018232Y-77231485D01*
X54803947Y-87767200D02*
X54946804Y-87814819D01*
X54946804Y-87814819D02*
X55184899Y-87814819D01*
X55184899Y-87814819D02*
X55280137Y-87767200D01*
X55280137Y-87767200D02*
X55327756Y-87719580D01*
X55327756Y-87719580D02*
X55375375Y-87624342D01*
X55375375Y-87624342D02*
X55375375Y-87529104D01*
X55375375Y-87529104D02*
X55327756Y-87433866D01*
X55327756Y-87433866D02*
X55280137Y-87386247D01*
X55280137Y-87386247D02*
X55184899Y-87338628D01*
X55184899Y-87338628D02*
X54994423Y-87291009D01*
X54994423Y-87291009D02*
X54899185Y-87243390D01*
X54899185Y-87243390D02*
X54851566Y-87195771D01*
X54851566Y-87195771D02*
X54803947Y-87100533D01*
X54803947Y-87100533D02*
X54803947Y-87005295D01*
X54803947Y-87005295D02*
X54851566Y-86910057D01*
X54851566Y-86910057D02*
X54899185Y-86862438D01*
X54899185Y-86862438D02*
X54994423Y-86814819D01*
X54994423Y-86814819D02*
X55232518Y-86814819D01*
X55232518Y-86814819D02*
X55375375Y-86862438D01*
X55708709Y-86814819D02*
X55946804Y-87814819D01*
X55946804Y-87814819D02*
X56137280Y-87100533D01*
X56137280Y-87100533D02*
X56327756Y-87814819D01*
X56327756Y-87814819D02*
X56565852Y-86814819D01*
X56851566Y-86814819D02*
X57470613Y-86814819D01*
X57470613Y-86814819D02*
X57137280Y-87195771D01*
X57137280Y-87195771D02*
X57280137Y-87195771D01*
X57280137Y-87195771D02*
X57375375Y-87243390D01*
X57375375Y-87243390D02*
X57422994Y-87291009D01*
X57422994Y-87291009D02*
X57470613Y-87386247D01*
X57470613Y-87386247D02*
X57470613Y-87624342D01*
X57470613Y-87624342D02*
X57422994Y-87719580D01*
X57422994Y-87719580D02*
X57375375Y-87767200D01*
X57375375Y-87767200D02*
X57280137Y-87814819D01*
X57280137Y-87814819D02*
X56994423Y-87814819D01*
X56994423Y-87814819D02*
X56899185Y-87767200D01*
X56899185Y-87767200D02*
X56851566Y-87719580D01*
X45053947Y-77767200D02*
X45196804Y-77814819D01*
X45196804Y-77814819D02*
X45434899Y-77814819D01*
X45434899Y-77814819D02*
X45530137Y-77767200D01*
X45530137Y-77767200D02*
X45577756Y-77719580D01*
X45577756Y-77719580D02*
X45625375Y-77624342D01*
X45625375Y-77624342D02*
X45625375Y-77529104D01*
X45625375Y-77529104D02*
X45577756Y-77433866D01*
X45577756Y-77433866D02*
X45530137Y-77386247D01*
X45530137Y-77386247D02*
X45434899Y-77338628D01*
X45434899Y-77338628D02*
X45244423Y-77291009D01*
X45244423Y-77291009D02*
X45149185Y-77243390D01*
X45149185Y-77243390D02*
X45101566Y-77195771D01*
X45101566Y-77195771D02*
X45053947Y-77100533D01*
X45053947Y-77100533D02*
X45053947Y-77005295D01*
X45053947Y-77005295D02*
X45101566Y-76910057D01*
X45101566Y-76910057D02*
X45149185Y-76862438D01*
X45149185Y-76862438D02*
X45244423Y-76814819D01*
X45244423Y-76814819D02*
X45482518Y-76814819D01*
X45482518Y-76814819D02*
X45625375Y-76862438D01*
X45958709Y-76814819D02*
X46196804Y-77814819D01*
X46196804Y-77814819D02*
X46387280Y-77100533D01*
X46387280Y-77100533D02*
X46577756Y-77814819D01*
X46577756Y-77814819D02*
X46815852Y-76814819D01*
X47149185Y-76910057D02*
X47196804Y-76862438D01*
X47196804Y-76862438D02*
X47292042Y-76814819D01*
X47292042Y-76814819D02*
X47530137Y-76814819D01*
X47530137Y-76814819D02*
X47625375Y-76862438D01*
X47625375Y-76862438D02*
X47672994Y-76910057D01*
X47672994Y-76910057D02*
X47720613Y-77005295D01*
X47720613Y-77005295D02*
X47720613Y-77100533D01*
X47720613Y-77100533D02*
X47672994Y-77243390D01*
X47672994Y-77243390D02*
X47101566Y-77814819D01*
X47101566Y-77814819D02*
X47720613Y-77814819D01*
X70606867Y-68339039D02*
X70749724Y-68386658D01*
X70749724Y-68386658D02*
X70987819Y-68386658D01*
X70987819Y-68386658D02*
X71083057Y-68339039D01*
X71083057Y-68339039D02*
X71130676Y-68291419D01*
X71130676Y-68291419D02*
X71178295Y-68196181D01*
X71178295Y-68196181D02*
X71178295Y-68100943D01*
X71178295Y-68100943D02*
X71130676Y-68005705D01*
X71130676Y-68005705D02*
X71083057Y-67958086D01*
X71083057Y-67958086D02*
X70987819Y-67910467D01*
X70987819Y-67910467D02*
X70797343Y-67862848D01*
X70797343Y-67862848D02*
X70702105Y-67815229D01*
X70702105Y-67815229D02*
X70654486Y-67767610D01*
X70654486Y-67767610D02*
X70606867Y-67672372D01*
X70606867Y-67672372D02*
X70606867Y-67577134D01*
X70606867Y-67577134D02*
X70654486Y-67481896D01*
X70654486Y-67481896D02*
X70702105Y-67434277D01*
X70702105Y-67434277D02*
X70797343Y-67386658D01*
X70797343Y-67386658D02*
X71035438Y-67386658D01*
X71035438Y-67386658D02*
X71178295Y-67434277D01*
X71511629Y-67386658D02*
X71749724Y-68386658D01*
X71749724Y-68386658D02*
X71940200Y-67672372D01*
X71940200Y-67672372D02*
X72130676Y-68386658D01*
X72130676Y-68386658D02*
X72368772Y-67386658D01*
X73273533Y-68386658D02*
X72702105Y-68386658D01*
X72987819Y-68386658D02*
X72987819Y-67386658D01*
X72987819Y-67386658D02*
X72892581Y-67529515D01*
X72892581Y-67529515D02*
X72797343Y-67624753D01*
X72797343Y-67624753D02*
X72702105Y-67672372D01*
X131470613Y-94584819D02*
X131137280Y-94108628D01*
X130899185Y-94584819D02*
X130899185Y-93584819D01*
X130899185Y-93584819D02*
X131280137Y-93584819D01*
X131280137Y-93584819D02*
X131375375Y-93632438D01*
X131375375Y-93632438D02*
X131422994Y-93680057D01*
X131422994Y-93680057D02*
X131470613Y-93775295D01*
X131470613Y-93775295D02*
X131470613Y-93918152D01*
X131470613Y-93918152D02*
X131422994Y-94013390D01*
X131422994Y-94013390D02*
X131375375Y-94061009D01*
X131375375Y-94061009D02*
X131280137Y-94108628D01*
X131280137Y-94108628D02*
X130899185Y-94108628D01*
X132042042Y-94013390D02*
X131946804Y-93965771D01*
X131946804Y-93965771D02*
X131899185Y-93918152D01*
X131899185Y-93918152D02*
X131851566Y-93822914D01*
X131851566Y-93822914D02*
X131851566Y-93775295D01*
X131851566Y-93775295D02*
X131899185Y-93680057D01*
X131899185Y-93680057D02*
X131946804Y-93632438D01*
X131946804Y-93632438D02*
X132042042Y-93584819D01*
X132042042Y-93584819D02*
X132232518Y-93584819D01*
X132232518Y-93584819D02*
X132327756Y-93632438D01*
X132327756Y-93632438D02*
X132375375Y-93680057D01*
X132375375Y-93680057D02*
X132422994Y-93775295D01*
X132422994Y-93775295D02*
X132422994Y-93822914D01*
X132422994Y-93822914D02*
X132375375Y-93918152D01*
X132375375Y-93918152D02*
X132327756Y-93965771D01*
X132327756Y-93965771D02*
X132232518Y-94013390D01*
X132232518Y-94013390D02*
X132042042Y-94013390D01*
X132042042Y-94013390D02*
X131946804Y-94061009D01*
X131946804Y-94061009D02*
X131899185Y-94108628D01*
X131899185Y-94108628D02*
X131851566Y-94203866D01*
X131851566Y-94203866D02*
X131851566Y-94394342D01*
X131851566Y-94394342D02*
X131899185Y-94489580D01*
X131899185Y-94489580D02*
X131946804Y-94537200D01*
X131946804Y-94537200D02*
X132042042Y-94584819D01*
X132042042Y-94584819D02*
X132232518Y-94584819D01*
X132232518Y-94584819D02*
X132327756Y-94537200D01*
X132327756Y-94537200D02*
X132375375Y-94489580D01*
X132375375Y-94489580D02*
X132422994Y-94394342D01*
X132422994Y-94394342D02*
X132422994Y-94203866D01*
X132422994Y-94203866D02*
X132375375Y-94108628D01*
X132375375Y-94108628D02*
X132327756Y-94061009D01*
X132327756Y-94061009D02*
X132232518Y-94013390D01*
X131470613Y-87944819D02*
X131137280Y-87468628D01*
X130899185Y-87944819D02*
X130899185Y-86944819D01*
X130899185Y-86944819D02*
X131280137Y-86944819D01*
X131280137Y-86944819D02*
X131375375Y-86992438D01*
X131375375Y-86992438D02*
X131422994Y-87040057D01*
X131422994Y-87040057D02*
X131470613Y-87135295D01*
X131470613Y-87135295D02*
X131470613Y-87278152D01*
X131470613Y-87278152D02*
X131422994Y-87373390D01*
X131422994Y-87373390D02*
X131375375Y-87421009D01*
X131375375Y-87421009D02*
X131280137Y-87468628D01*
X131280137Y-87468628D02*
X130899185Y-87468628D01*
X131803947Y-86944819D02*
X132470613Y-86944819D01*
X132470613Y-86944819D02*
X132042042Y-87944819D01*
X104833333Y-71584819D02*
X104500000Y-71108628D01*
X104261905Y-71584819D02*
X104261905Y-70584819D01*
X104261905Y-70584819D02*
X104642857Y-70584819D01*
X104642857Y-70584819D02*
X104738095Y-70632438D01*
X104738095Y-70632438D02*
X104785714Y-70680057D01*
X104785714Y-70680057D02*
X104833333Y-70775295D01*
X104833333Y-70775295D02*
X104833333Y-70918152D01*
X104833333Y-70918152D02*
X104785714Y-71013390D01*
X104785714Y-71013390D02*
X104738095Y-71061009D01*
X104738095Y-71061009D02*
X104642857Y-71108628D01*
X104642857Y-71108628D02*
X104261905Y-71108628D01*
X105690476Y-70584819D02*
X105500000Y-70584819D01*
X105500000Y-70584819D02*
X105404762Y-70632438D01*
X105404762Y-70632438D02*
X105357143Y-70680057D01*
X105357143Y-70680057D02*
X105261905Y-70822914D01*
X105261905Y-70822914D02*
X105214286Y-71013390D01*
X105214286Y-71013390D02*
X105214286Y-71394342D01*
X105214286Y-71394342D02*
X105261905Y-71489580D01*
X105261905Y-71489580D02*
X105309524Y-71537200D01*
X105309524Y-71537200D02*
X105404762Y-71584819D01*
X105404762Y-71584819D02*
X105595238Y-71584819D01*
X105595238Y-71584819D02*
X105690476Y-71537200D01*
X105690476Y-71537200D02*
X105738095Y-71489580D01*
X105738095Y-71489580D02*
X105785714Y-71394342D01*
X105785714Y-71394342D02*
X105785714Y-71156247D01*
X105785714Y-71156247D02*
X105738095Y-71061009D01*
X105738095Y-71061009D02*
X105690476Y-71013390D01*
X105690476Y-71013390D02*
X105595238Y-70965771D01*
X105595238Y-70965771D02*
X105404762Y-70965771D01*
X105404762Y-70965771D02*
X105309524Y-71013390D01*
X105309524Y-71013390D02*
X105261905Y-71061009D01*
X105261905Y-71061009D02*
X105214286Y-71156247D01*
X107470613Y-66584819D02*
X107137280Y-66108628D01*
X106899185Y-66584819D02*
X106899185Y-65584819D01*
X106899185Y-65584819D02*
X107280137Y-65584819D01*
X107280137Y-65584819D02*
X107375375Y-65632438D01*
X107375375Y-65632438D02*
X107422994Y-65680057D01*
X107422994Y-65680057D02*
X107470613Y-65775295D01*
X107470613Y-65775295D02*
X107470613Y-65918152D01*
X107470613Y-65918152D02*
X107422994Y-66013390D01*
X107422994Y-66013390D02*
X107375375Y-66061009D01*
X107375375Y-66061009D02*
X107280137Y-66108628D01*
X107280137Y-66108628D02*
X106899185Y-66108628D01*
X108375375Y-65584819D02*
X107899185Y-65584819D01*
X107899185Y-65584819D02*
X107851566Y-66061009D01*
X107851566Y-66061009D02*
X107899185Y-66013390D01*
X107899185Y-66013390D02*
X107994423Y-65965771D01*
X107994423Y-65965771D02*
X108232518Y-65965771D01*
X108232518Y-65965771D02*
X108327756Y-66013390D01*
X108327756Y-66013390D02*
X108375375Y-66061009D01*
X108375375Y-66061009D02*
X108422994Y-66156247D01*
X108422994Y-66156247D02*
X108422994Y-66394342D01*
X108422994Y-66394342D02*
X108375375Y-66489580D01*
X108375375Y-66489580D02*
X108327756Y-66537200D01*
X108327756Y-66537200D02*
X108232518Y-66584819D01*
X108232518Y-66584819D02*
X107994423Y-66584819D01*
X107994423Y-66584819D02*
X107899185Y-66537200D01*
X107899185Y-66537200D02*
X107851566Y-66489580D01*
X70333333Y-93084819D02*
X70000000Y-92608628D01*
X69761905Y-93084819D02*
X69761905Y-92084819D01*
X69761905Y-92084819D02*
X70142857Y-92084819D01*
X70142857Y-92084819D02*
X70238095Y-92132438D01*
X70238095Y-92132438D02*
X70285714Y-92180057D01*
X70285714Y-92180057D02*
X70333333Y-92275295D01*
X70333333Y-92275295D02*
X70333333Y-92418152D01*
X70333333Y-92418152D02*
X70285714Y-92513390D01*
X70285714Y-92513390D02*
X70238095Y-92561009D01*
X70238095Y-92561009D02*
X70142857Y-92608628D01*
X70142857Y-92608628D02*
X69761905Y-92608628D01*
X71190476Y-92418152D02*
X71190476Y-93084819D01*
X70952381Y-92037200D02*
X70714286Y-92751485D01*
X70714286Y-92751485D02*
X71333333Y-92751485D01*
X67833333Y-88084819D02*
X67500000Y-87608628D01*
X67261905Y-88084819D02*
X67261905Y-87084819D01*
X67261905Y-87084819D02*
X67642857Y-87084819D01*
X67642857Y-87084819D02*
X67738095Y-87132438D01*
X67738095Y-87132438D02*
X67785714Y-87180057D01*
X67785714Y-87180057D02*
X67833333Y-87275295D01*
X67833333Y-87275295D02*
X67833333Y-87418152D01*
X67833333Y-87418152D02*
X67785714Y-87513390D01*
X67785714Y-87513390D02*
X67738095Y-87561009D01*
X67738095Y-87561009D02*
X67642857Y-87608628D01*
X67642857Y-87608628D02*
X67261905Y-87608628D01*
X68166667Y-87084819D02*
X68785714Y-87084819D01*
X68785714Y-87084819D02*
X68452381Y-87465771D01*
X68452381Y-87465771D02*
X68595238Y-87465771D01*
X68595238Y-87465771D02*
X68690476Y-87513390D01*
X68690476Y-87513390D02*
X68738095Y-87561009D01*
X68738095Y-87561009D02*
X68785714Y-87656247D01*
X68785714Y-87656247D02*
X68785714Y-87894342D01*
X68785714Y-87894342D02*
X68738095Y-87989580D01*
X68738095Y-87989580D02*
X68690476Y-88037200D01*
X68690476Y-88037200D02*
X68595238Y-88084819D01*
X68595238Y-88084819D02*
X68309524Y-88084819D01*
X68309524Y-88084819D02*
X68214286Y-88037200D01*
X68214286Y-88037200D02*
X68166667Y-87989580D01*
X44470613Y-71444819D02*
X44137280Y-70968628D01*
X43899185Y-71444819D02*
X43899185Y-70444819D01*
X43899185Y-70444819D02*
X44280137Y-70444819D01*
X44280137Y-70444819D02*
X44375375Y-70492438D01*
X44375375Y-70492438D02*
X44422994Y-70540057D01*
X44422994Y-70540057D02*
X44470613Y-70635295D01*
X44470613Y-70635295D02*
X44470613Y-70778152D01*
X44470613Y-70778152D02*
X44422994Y-70873390D01*
X44422994Y-70873390D02*
X44375375Y-70921009D01*
X44375375Y-70921009D02*
X44280137Y-70968628D01*
X44280137Y-70968628D02*
X43899185Y-70968628D01*
X44851566Y-70540057D02*
X44899185Y-70492438D01*
X44899185Y-70492438D02*
X44994423Y-70444819D01*
X44994423Y-70444819D02*
X45232518Y-70444819D01*
X45232518Y-70444819D02*
X45327756Y-70492438D01*
X45327756Y-70492438D02*
X45375375Y-70540057D01*
X45375375Y-70540057D02*
X45422994Y-70635295D01*
X45422994Y-70635295D02*
X45422994Y-70730533D01*
X45422994Y-70730533D02*
X45375375Y-70873390D01*
X45375375Y-70873390D02*
X44803947Y-71444819D01*
X44803947Y-71444819D02*
X45422994Y-71444819D01*
X44470613Y-66944819D02*
X44137280Y-66468628D01*
X43899185Y-66944819D02*
X43899185Y-65944819D01*
X43899185Y-65944819D02*
X44280137Y-65944819D01*
X44280137Y-65944819D02*
X44375375Y-65992438D01*
X44375375Y-65992438D02*
X44422994Y-66040057D01*
X44422994Y-66040057D02*
X44470613Y-66135295D01*
X44470613Y-66135295D02*
X44470613Y-66278152D01*
X44470613Y-66278152D02*
X44422994Y-66373390D01*
X44422994Y-66373390D02*
X44375375Y-66421009D01*
X44375375Y-66421009D02*
X44280137Y-66468628D01*
X44280137Y-66468628D02*
X43899185Y-66468628D01*
X45422994Y-66944819D02*
X44851566Y-66944819D01*
X45137280Y-66944819D02*
X45137280Y-65944819D01*
X45137280Y-65944819D02*
X45042042Y-66087676D01*
X45042042Y-66087676D02*
X44946804Y-66182914D01*
X44946804Y-66182914D02*
X44851566Y-66230533D01*
D13*
%TO.C,D1*%
X127500000Y-55440000D02*
X127500000Y-54220000D01*
X126030000Y-54220000D02*
X128970000Y-54220000D01*
X128970000Y-54220000D02*
X128970000Y-48780000D01*
X126030000Y-53440000D02*
X128970000Y-53440000D01*
X126030000Y-53320000D02*
X128970000Y-53320000D01*
X126030000Y-53200000D02*
X128970000Y-53200000D01*
X126030000Y-48780000D02*
X126030000Y-54220000D01*
X128970000Y-48780000D02*
X126030000Y-48780000D01*
X127500000Y-47560000D02*
X127500000Y-48780000D01*
%TO.C,J1*%
X59330000Y-40190000D02*
X59330000Y-58030000D01*
X56670000Y-58030000D02*
X59330000Y-58030000D01*
X56670000Y-40190000D02*
X59330000Y-40190000D01*
X56670000Y-40190000D02*
X56670000Y-58030000D01*
X56670000Y-38920000D02*
X56670000Y-37590000D01*
X56670000Y-37590000D02*
X58000000Y-37590000D01*
%TO.C,SW8*%
X123137280Y-92360000D02*
X123137280Y-90860000D01*
X121887280Y-88360000D02*
X117387280Y-88360000D01*
X117387280Y-94860000D02*
X121887280Y-94860000D01*
X116137280Y-90860000D02*
X116137280Y-92360000D01*
%TO.C,SW7*%
X133637280Y-82360000D02*
X133637280Y-80860000D01*
X132387280Y-78360000D02*
X127887280Y-78360000D01*
X127887280Y-84860000D02*
X132387280Y-84860000D01*
X126637280Y-80860000D02*
X126637280Y-82360000D01*
%TO.C,SW6*%
X112887280Y-82360000D02*
X112887280Y-80860000D01*
X111637280Y-78360000D02*
X107137280Y-78360000D01*
X107137280Y-84860000D02*
X111637280Y-84860000D01*
X105887280Y-80860000D02*
X105887280Y-82360000D01*
%TO.C,SW5*%
X123137280Y-72360000D02*
X123137280Y-70860000D01*
X121887280Y-68360000D02*
X117387280Y-68360000D01*
X117387280Y-74860000D02*
X121887280Y-74860000D01*
X116137280Y-70860000D02*
X116137280Y-72360000D01*
%TO.C,SW4*%
X70137280Y-82110000D02*
X70137280Y-80610000D01*
X68887280Y-78110000D02*
X64387280Y-78110000D01*
X64387280Y-84610000D02*
X68887280Y-84610000D01*
X63137280Y-80610000D02*
X63137280Y-82110000D01*
%TO.C,SW3*%
X59637280Y-92360000D02*
X59637280Y-90860000D01*
X58387280Y-88360000D02*
X53887280Y-88360000D01*
X53887280Y-94860000D02*
X58387280Y-94860000D01*
X52637280Y-90860000D02*
X52637280Y-92360000D01*
%TO.C,SW2*%
X49887280Y-82360000D02*
X49887280Y-80860000D01*
X48637280Y-78360000D02*
X44137280Y-78360000D01*
X44137280Y-84860000D02*
X48637280Y-84860000D01*
X42887280Y-80860000D02*
X42887280Y-82360000D01*
%TO.C,SW1*%
X59887280Y-72360000D02*
X59887280Y-70860000D01*
X58637280Y-68360000D02*
X54137280Y-68360000D01*
X54137280Y-74860000D02*
X58637280Y-74860000D01*
X52887280Y-70860000D02*
X52887280Y-72360000D01*
%TO.C,R8*%
X135677280Y-96500000D02*
X134907280Y-96500000D01*
X134907280Y-97870000D02*
X134907280Y-95130000D01*
X134907280Y-95130000D02*
X128367280Y-95130000D01*
X128367280Y-97870000D02*
X134907280Y-97870000D01*
X128367280Y-95130000D02*
X128367280Y-97870000D01*
X127597280Y-96500000D02*
X128367280Y-96500000D01*
%TO.C,R7*%
X135677280Y-89860000D02*
X134907280Y-89860000D01*
X134907280Y-91230000D02*
X134907280Y-88490000D01*
X134907280Y-88490000D02*
X128367280Y-88490000D01*
X128367280Y-91230000D02*
X134907280Y-91230000D01*
X128367280Y-88490000D02*
X128367280Y-91230000D01*
X127597280Y-89860000D02*
X128367280Y-89860000D01*
%TO.C,R6*%
X109040000Y-73500000D02*
X108270000Y-73500000D01*
X108270000Y-74870000D02*
X108270000Y-72130000D01*
X108270000Y-72130000D02*
X101730000Y-72130000D01*
X101730000Y-74870000D02*
X108270000Y-74870000D01*
X101730000Y-72130000D02*
X101730000Y-74870000D01*
X100960000Y-73500000D02*
X101730000Y-73500000D01*
%TO.C,R5*%
X111677280Y-68500000D02*
X110907280Y-68500000D01*
X110907280Y-69870000D02*
X110907280Y-67130000D01*
X110907280Y-67130000D02*
X104367280Y-67130000D01*
X104367280Y-69870000D02*
X110907280Y-69870000D01*
X104367280Y-67130000D02*
X104367280Y-69870000D01*
X103597280Y-68500000D02*
X104367280Y-68500000D01*
%TO.C,R4*%
X74540000Y-95000000D02*
X73770000Y-95000000D01*
X73770000Y-96370000D02*
X73770000Y-93630000D01*
X73770000Y-93630000D02*
X67230000Y-93630000D01*
X67230000Y-96370000D02*
X73770000Y-96370000D01*
X67230000Y-93630000D02*
X67230000Y-96370000D01*
X66460000Y-95000000D02*
X67230000Y-95000000D01*
%TO.C,R3*%
X63960000Y-90000000D02*
X64730000Y-90000000D01*
X64730000Y-88630000D02*
X64730000Y-91370000D01*
X64730000Y-91370000D02*
X71270000Y-91370000D01*
X71270000Y-88630000D02*
X64730000Y-88630000D01*
X71270000Y-91370000D02*
X71270000Y-88630000D01*
X72040000Y-90000000D02*
X71270000Y-90000000D01*
%TO.C,R2*%
X48677280Y-73360000D02*
X47907280Y-73360000D01*
X47907280Y-74730000D02*
X47907280Y-71990000D01*
X47907280Y-71990000D02*
X41367280Y-71990000D01*
X41367280Y-74730000D02*
X47907280Y-74730000D01*
X41367280Y-71990000D02*
X41367280Y-74730000D01*
X40597280Y-73360000D02*
X41367280Y-73360000D01*
%TO.C,R1*%
X48677280Y-68860000D02*
X47907280Y-68860000D01*
X47907280Y-70230000D02*
X47907280Y-67490000D01*
X47907280Y-67490000D02*
X41367280Y-67490000D01*
X41367280Y-70230000D02*
X47907280Y-70230000D01*
X41367280Y-67490000D02*
X41367280Y-70230000D01*
X40597280Y-68860000D02*
X41367280Y-68860000D01*
%TD*%
M02*
