%TF.GenerationSoftware,KiCad,Pcbnew,8.0.2*%
%TF.CreationDate,2024-06-07T00:11:44+02:00*%
%TF.ProjectId,BBC,4242432e-6b69-4636-9164-5f7063625858,rev?*%
%TF.SameCoordinates,Original*%
%TF.FileFunction,Soldermask,Bot*%
%TF.FilePolarity,Negative*%
%FSLAX46Y46*%
G04 Gerber Fmt 4.6, Leading zero omitted, Abs format (unit mm)*
G04 Created by KiCad (PCBNEW 8.0.2) date 2024-06-07 00:11:44*
%MOMM*%
%LPD*%
G01*
G04 APERTURE LIST*
G04 Aperture macros list*
%AMRoundRect*
0 Rectangle with rounded corners*
0 $1 Rounding radius*
0 $2 $3 $4 $5 $6 $7 $8 $9 X,Y pos of 4 corners*
0 Add a 4 corners polygon primitive as box body*
4,1,4,$2,$3,$4,$5,$6,$7,$8,$9,$2,$3,0*
0 Add four circle primitives for the rounded corners*
1,1,$1+$1,$2,$3*
1,1,$1+$1,$4,$5*
1,1,$1+$1,$6,$7*
1,1,$1+$1,$8,$9*
0 Add four rect primitives between the rounded corners*
20,1,$1+$1,$2,$3,$4,$5,0*
20,1,$1+$1,$4,$5,$6,$7,0*
20,1,$1+$1,$6,$7,$8,$9,0*
20,1,$1+$1,$8,$9,$2,$3,0*%
G04 Aperture macros list end*
%ADD10R,1.800000X1.800000*%
%ADD11O,1.800000X1.800000*%
%ADD12RoundRect,0.250000X0.600000X-0.600000X0.600000X0.600000X-0.600000X0.600000X-0.600000X-0.600000X0*%
%ADD13C,1.700000*%
%ADD14R,1.700000X1.700000*%
%ADD15O,1.700000X1.700000*%
%ADD16O,1.200000X2.000000*%
%ADD17R,1.200000X2.000000*%
%ADD18C,2.000000*%
%ADD19O,1.600000X1.600000*%
%ADD20C,1.600000*%
G04 APERTURE END LIST*
D10*
%TO.C,D1*%
X127500000Y-56580000D03*
D11*
X127500000Y-46420000D03*
%TD*%
D12*
%TO.C,J4*%
X127500000Y-42350000D03*
D13*
X127500000Y-38650000D03*
%TD*%
D14*
%TO.C,J3*%
X77500000Y-66340000D03*
D15*
X77500000Y-68880000D03*
X77500000Y-71420000D03*
X77500000Y-73960000D03*
X77500000Y-76500000D03*
X77500000Y-79040000D03*
%TD*%
%TO.C,J2*%
X83500000Y-97660000D03*
X83500000Y-95120000D03*
X83500000Y-92580000D03*
X83500000Y-90040000D03*
X83500000Y-87500000D03*
D14*
X83500000Y-84960000D03*
%TD*%
D15*
%TO.C,J1*%
X58000000Y-56700000D03*
X58000000Y-54160000D03*
X58000000Y-51620000D03*
X58000000Y-49080000D03*
X58000000Y-46540000D03*
X58000000Y-44000000D03*
X58000000Y-41460000D03*
D14*
X58000000Y-38920000D03*
%TD*%
D16*
%TO.C,U4*%
X115720000Y-38500000D03*
X113180000Y-38500000D03*
X110640000Y-38500000D03*
X108100000Y-38500000D03*
X105560000Y-38500000D03*
X103020000Y-38500000D03*
X100480000Y-38500000D03*
X97940000Y-38500000D03*
X95400000Y-38500000D03*
X92860000Y-38500000D03*
X90320000Y-38500000D03*
X87780000Y-38500000D03*
X85240000Y-38500000D03*
X82700000Y-38500000D03*
X80160000Y-38500000D03*
X77620000Y-38500000D03*
X75080000Y-38500000D03*
X72540000Y-38500000D03*
X70000000Y-38500000D03*
X67460000Y-38500000D03*
X64920000Y-38503680D03*
X64920000Y-61363680D03*
X67460000Y-61363680D03*
X69997280Y-61360000D03*
X72537280Y-61360000D03*
X75077280Y-61360000D03*
X77617280Y-61360000D03*
X80157280Y-61360000D03*
X82697280Y-61360000D03*
X85237280Y-61360000D03*
X87777280Y-61360000D03*
X90317280Y-61360000D03*
X92857280Y-61360000D03*
X95397280Y-61360000D03*
X97937280Y-61360000D03*
X100477280Y-61360000D03*
X103017280Y-61360000D03*
X105557280Y-61360000D03*
X108097280Y-61360000D03*
X110637280Y-61360000D03*
X113177280Y-61360000D03*
D17*
X115717280Y-61360000D03*
%TD*%
D18*
%TO.C,SW8*%
X122887280Y-93860000D03*
X116387280Y-93860000D03*
X122887280Y-89360000D03*
X116387280Y-89360000D03*
%TD*%
%TO.C,SW7*%
X133387280Y-83860000D03*
X126887280Y-83860000D03*
X133387280Y-79360000D03*
X126887280Y-79360000D03*
%TD*%
%TO.C,SW6*%
X112637280Y-83860000D03*
X106137280Y-83860000D03*
X112637280Y-79360000D03*
X106137280Y-79360000D03*
%TD*%
%TO.C,SW5*%
X122887280Y-73860000D03*
X116387280Y-73860000D03*
X122887280Y-69360000D03*
X116387280Y-69360000D03*
%TD*%
%TO.C,SW4*%
X69887280Y-83610000D03*
X63387280Y-83610000D03*
X69887280Y-79110000D03*
X63387280Y-79110000D03*
%TD*%
%TO.C,SW3*%
X59387280Y-93860000D03*
X52887280Y-93860000D03*
X59387280Y-89360000D03*
X52887280Y-89360000D03*
%TD*%
%TO.C,SW2*%
X49637280Y-83860000D03*
X43137280Y-83860000D03*
X49637280Y-79360000D03*
X43137280Y-79360000D03*
%TD*%
%TO.C,SW1*%
X59637280Y-73860000D03*
X53137280Y-73860000D03*
X59637280Y-69360000D03*
X53137280Y-69360000D03*
%TD*%
D19*
%TO.C,R8*%
X136717280Y-96500000D03*
D20*
X126557280Y-96500000D03*
%TD*%
D19*
%TO.C,R7*%
X136717280Y-89860000D03*
D20*
X126557280Y-89860000D03*
%TD*%
D19*
%TO.C,R6*%
X110080000Y-73500000D03*
D20*
X99920000Y-73500000D03*
%TD*%
D19*
%TO.C,R5*%
X112717280Y-68500000D03*
D20*
X102557280Y-68500000D03*
%TD*%
D19*
%TO.C,R4*%
X75580000Y-95000000D03*
D20*
X65420000Y-95000000D03*
%TD*%
%TO.C,R3*%
X62920000Y-90000000D03*
D19*
X73080000Y-90000000D03*
%TD*%
%TO.C,R2*%
X49717280Y-73360000D03*
D20*
X39557280Y-73360000D03*
%TD*%
D19*
%TO.C,R1*%
X49717280Y-68860000D03*
D20*
X39557280Y-68860000D03*
%TD*%
M02*
